arm26_HoldHorizontal_states
version=1
nRows=41
nColumns=17
inDegrees=yes

# SIMM Motion File Header:
name arm26_HoldHorizontal_states
datacolumns 17
datarows 41
otherdata 1
range 0.78567717 0.83549204
endheader
time	r_shoulder_elev	r_elbow_flex	r_shoulder_elev_u	r_elbow_flex_u	TRIlong.activation	TRIlong.fiber_length	TRIlat.activation	TRIlat.fiber_length	TRImed.activation	TRImed.fiber_length	BIClong.activation	BIClong.fiber_length	BICshort.activation	BICshort.fiber_length	BRA.activation	BRA.fiber_length
      0.78567717	    -43.88675256	   -110.17647845	    180.68181425	   -154.74836180	      0.02000000	      0.14108266	      0.02000000	      0.09844939	      0.10000000	      0.09269780	      0.10000000	      0.11636021	      0.02000000	      0.12523178	      0.02000000	      0.05421364
      0.78713437	    -43.62199686	   -110.39969173	    182.69556822	   -151.61048523	      0.02000000	      0.14123700	      0.02000000	      0.09852377	      0.10000000	      0.09277232	      0.10000000	      0.11612602	      0.02000000	      0.12489759	      0.02000000	      0.05412264
      0.78859156	    -43.35430968	   -110.61831784	    184.70365507	   -148.44912650	      0.02000000	      0.14140565	      0.02000000	      0.09859654	      0.10000000	      0.09284525	      0.10000000	      0.11589404	      0.02000000	      0.12456542	      0.02000000	      0.05403356
      0.79004876	    -43.08369815	   -110.83232609	    186.71078942	   -145.27614243	      0.02000000	      0.14155950	      0.02000000	      0.09866770	      0.10000000	      0.09291658	      0.10000000	      0.11566425	      0.02000000	      0.12423532	      0.02000000	      0.05394640
      0.79150595	    -42.81016585	   -111.04169579	    188.71044265	   -142.07867585	      0.02000000	      0.14173095	      0.02000000	      0.09873726	      0.10000000	      0.09298632	      0.10000000	      0.11543569	      0.02000000	      0.12390734	      0.02000000	      0.05386118
      0.79281319	    -42.56230543	   -111.22554675	    190.50329009	   -139.20279544	      0.02000000	      0.14186802	      0.02000000	      0.09879828	      0.10000000	      0.09304753	      0.10000000	      0.11523139	      0.02000000	      0.12361495	      0.02000000	      0.05378636
      0.79412042	    -42.31210516	   -111.40562749	    192.28955582	   -136.30903920	      0.02000000	      0.14201784	      0.02000000	      0.09885801	      0.10000000	      0.09310746	      0.10000000	      0.11502803	      0.02000000	      0.12332434	      0.02000000	      0.05371311
      0.79573839	    -41.99920149	   -111.62326449	    194.49632077	   -132.71559982	      0.02000000	      0.14219329	      0.02000000	      0.09893016	      0.10000000	      0.09317987	      0.10000000	      0.11477790	      0.02000000	      0.12296716	      0.02000000	      0.05362460
      0.79702786	    -41.74727384	   -111.79254216	    196.24750704	   -129.83469349	      0.02000000	      0.14234556	      0.02000000	      0.09898624	      0.10000000	      0.09323618	      0.10000000	      0.11458000	      0.02000000	      0.12268454	      0.02000000	      0.05355577
      0.79831733	    -41.49309045	   -111.95810014	    197.99596173	   -126.94848123	      0.02000000	      0.14248456	      0.02000000	      0.09904107	      0.10000000	      0.09329125	      0.10000000	      0.11438352	      0.02000000	      0.12240375	      0.02000000	      0.05348847
      0.79960680	    -41.23665675	   -112.11992830	    199.73702235	   -124.04822744	      0.02000000	      0.14263343	      0.02000000	      0.09909465	      0.10000000	      0.09334508	      0.10000000	      0.11418858	      0.02000000	      0.12212483	      0.02000000	      0.05342269
      0.80120591	    -40.91553509	   -112.31541091	    201.88987283	   -120.44229609	      0.02000000	      0.14280844	      0.02000000	      0.09915936	      0.10000000	      0.09341013	      0.10000000	      0.11394912	      0.02000000	      0.12178158	      0.02000000	      0.05334323
      0.80240956	    -40.67155943	   -112.45874071	    203.50161297	   -117.71390102	      0.02000000	      0.14295206	      0.02000000	      0.09920680	      0.10000000	      0.09345784	      0.10000000	      0.11377065	      0.02000000	      0.12152519	      0.02000000	      0.05328496
      0.80361321	    -40.42564659	   -112.59878329	    205.10938743	   -114.98172151	      0.02000000	      0.14308406	      0.02000000	      0.09925316	      0.10000000	      0.09350448	      0.10000000	      0.11359377	      0.02000000	      0.12127051	      0.02000000	      0.05322802
      0.80481686	    -40.17780295	   -112.73553124	    206.70938755	   -112.23875692	      0.02000000	      0.14322331	      0.02000000	      0.09929843	      0.10000000	      0.09355005	      0.10000000	      0.11341854	      0.02000000	      0.12101758	      0.02000000	      0.05317241
      0.80651270	    -39.82535222	   -112.92258533	    208.95362509	   -108.36418391	      0.02000000	      0.14341223	      0.02000000	      0.09936040	      0.10000000	      0.09361245	      0.10000000	      0.11317454	      0.02000000	      0.12066423	      0.02000000	      0.05309632
      0.80763138	    -39.59077754	   -113.04237432	    210.42431749	   -105.79623941	      0.02000000	      0.14354690	      0.02000000	      0.09940010	      0.10000000	      0.09365246	      0.10000000	      0.11301548	      0.02000000	      0.12043310	      0.02000000	      0.05304757
      0.80875005	    -39.35456065	   -113.15928836	    211.89002630	   -103.22521404	      0.02000000	      0.14367205	      0.02000000	      0.09943887	      0.10000000	      0.09369155	      0.10000000	      0.11285798	      0.02000000	      0.12020355	      0.02000000	      0.05299996
      0.81017121	    -39.05211390	   -113.30366047	    213.74059538	    -99.94700732	      0.02000000	      0.14383849	      0.02000000	      0.09948680	      0.10000000	      0.09373989	      0.10000000	      0.11266015	      0.02000000	      0.11991426	      0.02000000	      0.05294114
      0.81147566	    -38.77219920	   -113.43206891	    215.42982614	    -96.93137770	      0.02000000	      0.14398556	      0.02000000	      0.09952947	      0.10000000	      0.09378297	      0.10000000	      0.11248086	      0.02000000	      0.11965104	      0.02000000	      0.05288878
      0.81278010	    -38.49008821	   -113.55653740	    217.10677642	    -93.90390313	      0.02000000	      0.14414243	      0.02000000	      0.09957089	      0.10000000	      0.09382481	      0.10000000	      0.11230378	      0.02000000	      0.11939008	      0.02000000	      0.05283798
      0.81408454	    -38.20579642	   -113.67705229	    218.77500911	    -90.87288577	      0.02000000	      0.14428743	      0.02000000	      0.09961107	      0.10000000	      0.09386542	      0.10000000	      0.11212895	      0.02000000	      0.11913141	      0.02000000	      0.05278874
      0.81521914	    -37.95675597	   -113.77865600	    220.21420529	    -88.22512772	      0.02000000	      0.14442626	      0.02000000	      0.09964499	      0.10000000	      0.09389974	      0.10000000	      0.11197874	      0.02000000	      0.11890831	      0.02000000	      0.05274717
      0.81635375	    -37.70608710	   -113.87725340	    221.64618133	    -85.57511681	      0.02000000	      0.14455447	      0.02000000	      0.09967798	      0.10000000	      0.09393314	      0.10000000	      0.11183026	      0.02000000	      0.11868699	      0.02000000	      0.05270679
      0.81748835	    -37.45379938	   -113.97283968	    223.06723499	    -82.91635480	      0.02000000	      0.14469045	      0.02000000	      0.09971003	      0.10000000	      0.09396560	      0.10000000	      0.11168355	      0.02000000	      0.11846748	      0.02000000	      0.05266759
      0.81889994	    -37.13767968	   -114.08754503	    224.82293916	    -79.60336522	      0.02000000	      0.14485256	      0.02000000	      0.09974860	      0.10000000	      0.09400471	      0.10000000	      0.11150349	      0.02000000	      0.11819693	      0.02000000	      0.05262046
      0.81996209	    -36.89818873	   -114.17076761	    226.13200342	    -77.10169623	      0.02000000	      0.14498340	      0.02000000	      0.09977666	      0.10000000	      0.09403320	      0.10000000	      0.11136982	      0.02000000	      0.11799525	      0.02000000	      0.05258621
      0.82102423	    -36.65731173	   -114.25133151	    227.43329283	    -74.59812022	      0.02000000	      0.14510608	      0.02000000	      0.09980391	      0.10000000	      0.09406088	      0.10000000	      0.11123774	      0.02000000	      0.11779522	      0.02000000	      0.05255298
      0.82208638	    -36.41505797	   -114.32923309	    228.72411649	    -72.08810697	      0.02000000	      0.14523394	      0.02000000	      0.09983035	      0.10000000	      0.09408777	      0.10000000	      0.11110724	      0.02000000	      0.11759686	      0.02000000	      0.05252079
      0.82359351	    -36.06896990	   -114.43519132	    230.54000686	    -68.52110172	      0.02000000	      0.14541014	      0.02000000	      0.09986646	      0.10000000	      0.09412454	      0.10000000	      0.11092481	      0.02000000	      0.11731830	      0.02000000	      0.05247689
      0.82456205	    -35.84512325	   -114.50044355	    231.69489815	    -66.22182640	      0.02000000	      0.14553067	      0.02000000	      0.09988882	      0.10000000	      0.09414733	      0.10000000	      0.11080927	      0.02000000	      0.11714111	      0.02000000	      0.05244977
      0.82553059	    -35.62016180	   -114.56346800	    232.84225578	    -63.92133225	      0.02000000	      0.14564491	      0.02000000	      0.09991050	      0.10000000	      0.09416946	      0.10000000	      0.11069508	      0.02000000	      0.11696536	      0.02000000	      0.05242351
      0.82681746	    -35.31954930	   -114.64375678	    234.35218291	    -60.85824258	      0.02000000	      0.14580139	      0.02000000	      0.09993827	      0.10000000	      0.09419784	      0.10000000	      0.11054545	      0.02000000	      0.11673409	      0.02000000	      0.05238994
      0.82798035	    -35.04623661	   -114.71291695	    235.70348057	    -58.08698971	      0.02000000	      0.14593951	      0.02000000	      0.09996236	      0.10000000	      0.09422249	      0.10000000	      0.11041229	      0.02000000	      0.11652735	      0.02000000	      0.05236091
      0.82914324	    -34.77136051	   -114.77885172	    237.04020498	    -55.30966631	      0.02000000	      0.14608410	      0.02000000	      0.09998549	      0.10000000	      0.09424621	      0.10000000	      0.11028109	      0.02000000	      0.11632277	      0.02000000	      0.05233311
      0.83018312	    -34.52424972	   -114.83507550	    238.22508721	    -52.82529329	      0.02000000	      0.14620684	      0.02000000	      0.10000537	      0.10000000	      0.09426662	      0.10000000	      0.11016543	      0.02000000	      0.11614167	      0.02000000	      0.05230930
      0.83122301	    -34.27591300	   -114.88871372	    239.39750384	    -50.33598377	      0.02000000	      0.14633618	      0.02000000	      0.10002449	      0.10000000	      0.09428629	      0.10000000	      0.11005135	      0.02000000	      0.11596233	      0.02000000	      0.05228647
      0.83226289	    -34.02636285	   -114.93976245	    240.55925874	    -47.84577299	      0.02000000	      0.14646113	      0.02000000	      0.10004286	      0.10000000	      0.09430521	      0.10000000	      0.10993886	      0.02000000	      0.11578478	      0.02000000	      0.05226463
      0.83330277	    -33.77561088	   -114.98822012	    241.70853370	    -45.35197907	      0.02000000	      0.14659043	      0.02000000	      0.10006047	      0.10000000	      0.09432340	      0.10000000	      0.10982796	      0.02000000	      0.11560902	      0.02000000	      0.05224377
      0.83460758	    -33.45929552	   -115.04535326	    243.13487847	    -42.22239659	      0.02000000	      0.14674713	      0.02000000	      0.10008151	      0.10000000	      0.09434517	      0.10000000	      0.10969106	      0.02000000	      0.11539106	      0.02000000	      0.05221899
      0.83549204	    -33.24382926	   -115.08175774	    244.08953370	    -40.09726861	      0.02000000	      0.14686048	      0.02000000	      0.10009511	      0.10000000	      0.09435928	      0.10000000	      0.10959970	      0.02000000	      0.11524496	      0.02000000	      0.05220308
